<svg viewBox="0 0 25 28" fill="none" xmlns="http://www.w3.org/2000/svg"><g filter="url(#filter0_d)"><path d="M22.999 14.814c0 3.78-.87 6.597-2.61 8.433-1.743 1.84-4.43 2.753-8.054 2.753-3.386 0-5.953-.913-7.707-2.753C2.877 21.412 2 18.64 2 14.941V2.526c0-.29.24-.526.532-.526h6.14a.53.53 0 01.532.526v12.687c0 1.512.281 2.676.855 3.495.57.816 1.387 1.226 2.452 1.226 1.07 0 1.885-.383 2.446-1.153.56-.77.838-1.903.838-3.405v-2.378h7.203v1.816z" fill="#fff"/><path d="M22.443 11.647h-6.647V2.554A.554.554 0 0116.353 2h.994a5.612 5.612 0 001.657 3.974 5.662 5.662 0 003.993 1.645H23v4.028h-.557z" fill="#fff"/><path d="M18.76 2h3.68c.306 0 .557.249.557.554V6.22c-1.123 0-2.2-.444-2.995-1.235a4.208 4.208 0 01-1.241-2.981V2z" fill="#F4821F"/></g><defs><filter id="filter0_d" x="0" y="0" width="25" height="28" filterUnits="userSpaceOnUse" color-interpolation-filters="sRGB"><feFlood flood-opacity="0" result="BackgroundImageFix"/><feColorMatrix in="SourceAlpha" values="0 0 0 0 0 0 0 0 0 0 0 0 0 0 0 0 0 0 127 0"/><feOffset/><feGaussianBlur stdDeviation="1"/><feColorMatrix values="0 0 0 0 0.203922 0 0 0 0 0.262745 0 0 0 0 0.337255 0 0 0 0.6 0"/><feBlend in2="BackgroundImageFix" result="effect1_dropShadow"/><feBlend in="SourceGraphic" in2="effect1_dropShadow" result="shape"/></filter></defs></svg>